# MagicaVoxel @ Ephtracy

# group
o pez

# material
mtllib CrossyModels-8-pez.mtl
usemtl palette

# normals
vn 0 0 -1
vn 0 0 1
vn 1 0 0
vn -1 0 0
vn 0 1 0
vn 0 -1 0

# texcoords
vt 0.908203 0.5
vt 0.916016 0.5
vt 0.919922 0.5
vt 0.923828 0.5
vt 0.927734 0.5
vt 0.943359 0.5
vt 0.982422 0.5
vt 0.986328 0.5

# verts
v 0 4.4 -4.7
v -0.3 4.4 -4.7
v -0.1 4.3 -4.7
v -0.2 4.3 -4.7
v -0.1 4.2 -4.7
v -0.2 4.2 -4.7
v 0 4.1 -4.7
v -0.3 4.1 -4.7
v -0.5 4.1 -4.7
v -0.7 4.1 -4.7
v -0.5 3.7 -4.7
v -0.7 3.7 -4.7
v 0.1 4.5 -4.6
v -0.3 4.5 -4.6
v -0.9 4.5 -4.6
v 0.2 4.4 -4.6
v 0.1 4.4 -4.6
v 0 4.4 -4.6
v -0.3 4.4 -4.6
v 0 4.1 -4.6
v -0.3 4.1 -4.6
v -0.5 4.1 -4.6
v -0.7 4.1 -4.6
v 0.2 4 -4.6
v 0.1 4 -4.6
v 0.1 3.9 -4.6
v -0.3 3.9 -4.6
v -0.5 3.9 -4.6
v -0.7 3.9 -4.6
v -0.9 3.9 -4.6
v -0.3 4.8 -4.4
v -0.7 4.8 -4.4
v -0.3 4.7 -4.4
v -0.7 4.7 -4.4
v 0.2 4.3 -4.4
v 0.1 4.3 -4.4
v 0.3 4.2 -4.4
v 0.2 4.2 -4.4
v 0.1 4.2 -4.4
v 0.3 4.1 -4.4
v 0.2 4.1 -4.4
v 0.1 4.1 -4.4
v -0.3 4.7 -4.3
v -0.7 4.7 -4.3
v -0.3 4.5 -4.3
v -0.7 4.5 -4.3
v -0.9 4.3 -4.3
v -1.2 4.3 -4.3
v -1.2 4.2 -4.3
v -1.3 4.2 -4.3
v -1.3 4.1 -4.3
v -1.4 4.1 -4.3
v -0.9 4 -4.3
v -1 4 -4.3
v -1 3.9 -4.3
v -1.1 3.9 -4.3
v -1.1 3.8 -4.3
v -1.4 3.8 -4.3
v 0.2 4.3 -4.2
v 0.1 4.3 -4.2
v 0.2 4.2 -4.2
v 0.1 4.2 -4.2
v 0.2 4.3 -4
v 0.1 4.3 -4
v 0.2 4.1 -4
v 0.1 4.1 -4
v -0.5 4 -3.8
v -0.7 4 -3.8
v -0.5 3.8 -3.8
v -0.7 3.8 -3.8
v -0.5 3.9 -4.6
v -0.7 3.9 -4.6
v -0.5 3.7 -4.6
v -0.7 3.7 -4.6
v 0.2 4.3 -4.5
v 0.1 4.3 -4.5
v 0.2 4.1 -4.5
v 0.1 4.1 -4.5
v 0.2 4.3 -4.3
v 0.1 4.3 -4.3
v 0.2 4.2 -4.3
v 0.1 4.2 -4.3
v -0.3 4.8 -4.2
v -0.7 4.8 -4.2
v -0.3 4.5 -4.2
v -0.7 4.5 -4.2
v -0.9 4.3 -4.2
v -1.2 4.3 -4.2
v -1.2 4.2 -4.2
v -1.3 4.2 -4.2
v -1.3 4.1 -4.2
v -1.4 4.1 -4.2
v -0.9 4 -4.2
v -1 4 -4.2
v -1 3.9 -4.2
v -1.1 3.9 -4.2
v -1.1 3.8 -4.2
v -1.4 3.8 -4.2
v 0.2 4.3 -4.1
v 0.1 4.3 -4.1
v 0.3 4.2 -4.1
v 0.2 4.2 -4.1
v 0.1 4.2 -4.1
v 0.3 4.1 -4.1
v 0.2 4.1 -4.1
v 0.1 4.1 -4.1
v 0.1 4.5 -3.9
v -0.3 4.5 -3.9
v -0.9 4.5 -3.9
v 0.2 4.4 -3.9
v 0.1 4.4 -3.9
v 0 4.4 -3.9
v -0.3 4.4 -3.9
v 0 4.1 -3.9
v -0.3 4.1 -3.9
v -0.5 4.1 -3.9
v -0.7 4.1 -3.9
v 0.2 4 -3.9
v 0.1 4 -3.9
v -0.5 4 -3.9
v -0.7 4 -3.9
v 0.1 3.9 -3.9
v -0.3 3.9 -3.9
v -0.9 3.9 -3.9
v 0 4.4 -3.8
v -0.3 4.4 -3.8
v -0.1 4.3 -3.8
v -0.2 4.3 -3.8
v -0.1 4.2 -3.8
v -0.2 4.2 -3.8
v 0 4.1 -3.8
v -0.3 4.1 -3.8
v -0.5 4.1 -3.7
v -0.7 4.1 -3.7
v -0.5 3.8 -3.7
v -0.7 3.8 -3.7
v 0.3 4.2 -4.4
v 0.3 4.1 -4.4
v 0.3 4.2 -4.1
v 0.3 4.1 -4.1
v 0.2 4.4 -4.6
v 0.2 4 -4.6
v 0.2 4.3 -4.5
v 0.2 4.1 -4.5
v 0.2 4.3 -4.4
v 0.2 4.2 -4.4
v 0.2 4.1 -4.4
v 0.2 4.3 -4.3
v 0.2 4.2 -4.3
v 0.2 4.3 -4.2
v 0.2 4.2 -4.2
v 0.2 4.3 -4.1
v 0.2 4.2 -4.1
v 0.2 4.1 -4.1
v 0.2 4.3 -4
v 0.2 4.1 -4
v 0.2 4.4 -3.9
v 0.2 4 -3.9
v 0.1 4.5 -4.6
v 0.1 4.4 -4.6
v 0.1 4 -4.6
v 0.1 3.9 -4.6
v 0.1 4.3 -4.5
v 0.1 4.1 -4.5
v 0.1 4.3 -4.4
v 0.1 4.2 -4.4
v 0.1 4.1 -4.4
v 0.1 4.3 -4.3
v 0.1 4.2 -4.3
v 0.1 4.3 -4.2
v 0.1 4.2 -4.2
v 0.1 4.3 -4.1
v 0.1 4.2 -4.1
v 0.1 4.1 -4.1
v 0.1 4.3 -4
v 0.1 4.1 -4
v 0.1 4.5 -3.9
v 0.1 4.4 -3.9
v 0.1 4 -3.9
v 0.1 3.9 -3.9
v 0 4.4 -4.7
v 0 4.1 -4.7
v 0 4.4 -4.6
v 0 4.1 -4.6
v 0 4.4 -3.9
v 0 4.1 -3.9
v 0 4.4 -3.8
v 0 4.1 -3.8
v -0.3 4.8 -4.4
v -0.3 4.7 -4.4
v -0.3 4.7 -4.3
v -0.3 4.5 -4.3
v -0.3 4.8 -4.2
v -0.3 4.5 -4.2
v -0.5 4.1 -4.7
v -0.5 3.7 -4.7
v -0.5 4.1 -4.6
v -0.5 3.9 -4.6
v -0.5 3.7 -4.6
v -0.5 4.1 -3.9
v -0.5 4 -3.9
v -0.5 4 -3.8
v -0.5 3.8 -3.8
v -0.5 4.1 -3.7
v -0.5 3.8 -3.7
v -1 4 -4.3
v -1 3.9 -4.3
v -1 4 -4.2
v -1 3.9 -4.2
v -1.1 3.9 -4.3
v -1.1 3.8 -4.3
v -1.1 3.9 -4.2
v -1.1 3.8 -4.2
v -0.3 4.4 -4.7
v -0.3 4.1 -4.7
v -0.3 4.4 -4.6
v -0.3 4.1 -4.6
v -0.3 4.4 -3.9
v -0.3 4.1 -3.9
v -0.3 4.4 -3.8
v -0.3 4.1 -3.8
v -0.7 4.1 -4.7
v -0.7 3.7 -4.7
v -0.7 4.1 -4.6
v -0.7 3.9 -4.6
v -0.7 3.7 -4.6
v -0.7 4.8 -4.4
v -0.7 4.7 -4.4
v -0.7 4.7 -4.3
v -0.7 4.5 -4.3
v -0.7 4.8 -4.2
v -0.7 4.5 -4.2
v -0.7 4.1 -3.9
v -0.7 4 -3.9
v -0.7 4 -3.8
v -0.7 3.8 -3.8
v -0.7 4.1 -3.7
v -0.7 3.8 -3.7
v -0.9 4.5 -4.6
v -0.9 3.9 -4.6
v -0.9 4.3 -4.3
v -0.9 4 -4.3
v -0.9 4.3 -4.2
v -0.9 4 -4.2
v -0.9 4.5 -3.9
v -0.9 3.9 -3.9
v -1.2 4.3 -4.3
v -1.2 4.2 -4.3
v -1.2 4.3 -4.2
v -1.2 4.2 -4.2
v -1.3 4.2 -4.3
v -1.3 4.1 -4.3
v -1.3 4.2 -4.2
v -1.3 4.1 -4.2
v -1.4 4.1 -4.3
v -1.4 3.8 -4.3
v -1.4 4.1 -4.2
v -1.4 3.8 -4.2
v -0.3 4.8 -4.4
v -0.3 4.8 -4.2
v -0.7 4.8 -4.4
v -0.7 4.8 -4.2
v 0.1 4.5 -4.6
v 0.1 4.5 -3.9
v -0.3 4.5 -4.6
v -0.3 4.5 -4.3
v -0.3 4.5 -4.2
v -0.3 4.5 -3.9
v -0.7 4.5 -4.3
v -0.7 4.5 -4.2
v -0.9 4.5 -4.6
v -0.9 4.5 -3.9
v 0.2 4.4 -4.6
v 0.2 4.4 -3.9
v 0.1 4.4 -4.6
v 0.1 4.4 -3.9
v 0 4.4 -4.7
v 0 4.4 -4.6
v 0 4.4 -3.9
v 0 4.4 -3.8
v -0.3 4.4 -4.7
v -0.3 4.4 -4.6
v -0.3 4.4 -3.9
v -0.3 4.4 -3.8
v -0.9 4.3 -4.3
v -0.9 4.3 -4.2
v -1.2 4.3 -4.3
v -1.2 4.3 -4.2
v 0.3 4.2 -4.4
v 0.3 4.2 -4.1
v 0.2 4.2 -4.4
v 0.2 4.2 -4.3
v 0.2 4.2 -4.2
v 0.2 4.2 -4.1
v 0.1 4.2 -4.3
v 0.1 4.2 -4.2
v -1.2 4.2 -4.3
v -1.2 4.2 -4.2
v -1.3 4.2 -4.3
v -1.3 4.2 -4.2
v 0.2 4.1 -4.5
v 0.2 4.1 -4.4
v 0.2 4.1 -4.1
v 0.2 4.1 -4
v 0.1 4.1 -4.5
v 0.1 4.1 -4.4
v 0.1 4.1 -4.1
v 0.1 4.1 -4
v -0.5 4.1 -4.7
v -0.5 4.1 -4.6
v -0.5 4.1 -3.9
v -0.5 4.1 -3.7
v -0.7 4.1 -4.7
v -0.7 4.1 -4.6
v -0.7 4.1 -3.9
v -0.7 4.1 -3.7
v -1.3 4.1 -4.3
v -1.3 4.1 -4.2
v -1.4 4.1 -4.3
v -1.4 4.1 -4.2
v -0.3 4.7 -4.4
v -0.3 4.7 -4.3
v -0.7 4.7 -4.4
v -0.7 4.7 -4.3
v 0.2 4.3 -4.5
v 0.2 4.3 -4.4
v 0.2 4.3 -4.3
v 0.2 4.3 -4.2
v 0.2 4.3 -4.1
v 0.2 4.3 -4
v 0.1 4.3 -4.5
v 0.1 4.3 -4.4
v 0.1 4.3 -4.3
v 0.1 4.3 -4.2
v 0.1 4.3 -4.1
v 0.1 4.3 -4
v 0.3 4.1 -4.4
v 0.3 4.1 -4.1
v 0.2 4.1 -4.4
v 0.2 4.1 -4.1
v 0 4.1 -4.7
v 0 4.1 -4.6
v 0 4.1 -3.9
v 0 4.1 -3.8
v -0.3 4.1 -4.7
v -0.3 4.1 -4.6
v -0.3 4.1 -3.9
v -0.3 4.1 -3.8
v 0.2 4 -4.6
v 0.2 4 -3.9
v 0.1 4 -4.6
v 0.1 4 -3.9
v -0.5 4 -3.9
v -0.5 4 -3.8
v -0.7 4 -3.9
v -0.7 4 -3.8
v -0.9 4 -4.3
v -0.9 4 -4.2
v -1 4 -4.3
v -1 4 -4.2
v 0.1 3.9 -4.6
v 0.1 3.9 -3.9
v -0.3 3.9 -4.6
v -0.3 3.9 -3.9
v -0.5 3.9 -4.6
v -0.7 3.9 -4.6
v -0.9 3.9 -4.6
v -0.9 3.9 -3.9
v -1 3.9 -4.3
v -1 3.9 -4.2
v -1.1 3.9 -4.3
v -1.1 3.9 -4.2
v -0.5 3.8 -3.8
v -0.5 3.8 -3.7
v -0.7 3.8 -3.8
v -0.7 3.8 -3.7
v -1.1 3.8 -4.3
v -1.1 3.8 -4.2
v -1.4 3.8 -4.3
v -1.4 3.8 -4.2
v -0.5 3.7 -4.7
v -0.5 3.7 -4.6
v -0.7 3.7 -4.7
v -0.7 3.7 -4.6

# faces
f 3/8/1 2/8/1 1/8/1
f 4/8/1 2/8/1 3/8/1
f 5/8/1 3/8/1 1/8/1
f 5/7/1 4/7/1 3/7/1
f 6/8/1 2/8/1 4/8/1
f 6/7/1 4/7/1 5/7/1
f 7/8/1 5/8/1 1/8/1
f 7/8/1 6/8/1 5/8/1
f 8/8/1 2/8/1 6/8/1
f 8/8/1 6/8/1 7/8/1
f 11/6/1 10/6/1 9/6/1
f 12/6/1 10/6/1 11/6/1
f 17/2/1 14/2/1 13/2/1
f 18/2/1 14/2/1 17/2/1
f 19/1/1 15/1/1 14/1/1
f 19/2/1 14/2/1 18/2/1
f 20/2/1 18/2/1 17/2/1
f 21/1/1 15/1/1 19/1/1
f 22/1/1 15/1/1 21/1/1
f 23/1/1 15/1/1 22/1/1
f 24/3/1 17/3/1 16/3/1
f 25/2/1 20/2/1 17/2/1
f 25/3/1 17/3/1 24/3/1
f 25/2/1 21/2/1 20/2/1
f 26/2/1 21/2/1 25/2/1
f 27/1/1 22/1/1 21/1/1
f 27/2/1 21/2/1 26/2/1
f 28/1/1 22/1/1 27/1/1
f 29/1/1 15/1/1 23/1/1
f 30/1/1 15/1/1 29/1/1
f 33/6/1 32/6/1 31/6/1
f 34/6/1 32/6/1 33/6/1
f 38/8/1 36/8/1 35/8/1
f 39/8/1 36/8/1 38/8/1
f 40/4/1 38/4/1 37/4/1
f 40/4/1 39/4/1 38/4/1
f 41/4/1 39/4/1 40/4/1
f 42/4/1 39/4/1 41/4/1
f 45/6/1 44/6/1 43/6/1
f 46/6/1 44/6/1 45/6/1
f 49/6/1 48/6/1 47/6/1
f 51/6/1 50/6/1 49/6/1
f 53/6/1 49/6/1 47/6/1
f 53/6/1 52/6/1 51/6/1
f 53/6/1 51/6/1 49/6/1
f 54/6/1 52/6/1 53/6/1
f 55/6/1 52/6/1 54/6/1
f 56/6/1 52/6/1 55/6/1
f 57/6/1 52/6/1 56/6/1
f 58/6/1 52/6/1 57/6/1
f 61/8/1 60/8/1 59/8/1
f 62/8/1 60/8/1 61/8/1
f 65/3/1 64/3/1 63/3/1
f 66/3/1 64/3/1 65/3/1
f 69/6/1 68/6/1 67/6/1
f 70/6/1 68/6/1 69/6/1
f 71/6/2 72/6/2 73/6/2
f 73/6/2 72/6/2 74/6/2
f 75/3/2 76/3/2 77/3/2
f 77/3/2 76/3/2 78/3/2
f 79/8/2 80/8/2 81/8/2
f 81/8/2 80/8/2 82/8/2
f 83/6/2 84/6/2 85/6/2
f 85/6/2 84/6/2 86/6/2
f 87/6/2 88/6/2 89/6/2
f 89/6/2 90/6/2 91/6/2
f 87/6/2 89/6/2 93/6/2
f 91/6/2 92/6/2 93/6/2
f 89/6/2 91/6/2 93/6/2
f 93/6/2 92/6/2 94/6/2
f 94/6/2 92/6/2 95/6/2
f 95/6/2 92/6/2 96/6/2
f 96/6/2 92/6/2 97/6/2
f 97/6/2 92/6/2 98/6/2
f 99/8/2 100/8/2 102/8/2
f 102/8/2 100/8/2 103/8/2
f 101/4/2 102/4/2 104/4/2
f 102/4/2 103/4/2 104/4/2
f 104/4/2 103/4/2 105/4/2
f 105/4/2 103/4/2 106/4/2
f 107/2/2 108/2/2 111/2/2
f 111/2/2 108/2/2 112/2/2
f 108/1/2 109/1/2 113/1/2
f 112/2/2 108/2/2 113/2/2
f 111/2/2 112/2/2 114/2/2
f 113/1/2 109/1/2 115/1/2
f 115/1/2 109/1/2 116/1/2
f 116/1/2 109/1/2 117/1/2
f 110/3/2 111/3/2 118/3/2
f 111/2/2 114/2/2 119/2/2
f 118/3/2 111/3/2 119/3/2
f 114/2/2 115/2/2 119/2/2
f 115/1/2 116/1/2 120/1/2
f 117/1/2 109/1/2 121/1/2
f 119/2/2 115/2/2 122/2/2
f 115/1/2 120/1/2 123/1/2
f 122/2/2 115/2/2 123/2/2
f 120/1/2 121/1/2 123/1/2
f 121/1/2 109/1/2 124/1/2
f 123/1/2 121/1/2 124/1/2
f 125/8/2 126/8/2 127/8/2
f 127/8/2 126/8/2 128/8/2
f 125/8/2 127/8/2 129/8/2
f 127/7/2 128/7/2 129/7/2
f 128/8/2 126/8/2 130/8/2
f 129/7/2 128/7/2 130/7/2
f 125/8/2 129/8/2 131/8/2
f 129/8/2 130/8/2 131/8/2
f 130/8/2 126/8/2 132/8/2
f 131/8/2 130/8/2 132/8/2
f 133/6/2 134/6/2 135/6/2
f 135/6/2 134/6/2 136/6/2
f 139/4/3 138/4/3 137/4/3
f 140/4/3 138/4/3 139/4/3
f 143/3/3 142/3/3 141/3/3
f 144/3/3 142/3/3 143/3/3
f 145/3/3 143/3/3 141/3/3
f 147/3/3 142/3/3 144/3/3
f 148/8/3 146/8/3 145/8/3
f 148/3/3 145/3/3 141/3/3
f 149/8/3 146/8/3 148/8/3
f 150/3/3 148/3/3 141/3/3
f 152/3/3 150/3/3 141/3/3
f 152/8/3 151/8/3 150/8/3
f 153/8/3 151/8/3 152/8/3
f 154/3/3 142/3/3 147/3/3
f 155/3/3 152/3/3 141/3/3
f 156/3/3 142/3/3 154/3/3
f 157/3/3 155/3/3 141/3/3
f 157/3/3 156/3/3 155/3/3
f 158/3/3 142/3/3 156/3/3
f 158/3/3 156/3/3 157/3/3
f 165/5/3 164/5/3 163/5/3
f 166/5/3 164/5/3 165/5/3
f 167/5/3 164/5/3 166/5/3
f 170/5/3 169/5/3 168/5/3
f 171/5/3 169/5/3 170/5/3
f 175/5/3 173/5/3 172/5/3
f 175/5/3 174/5/3 173/5/3
f 176/5/3 174/5/3 175/5/3
f 177/2/3 160/2/3 159/2/3
f 178/2/3 160/2/3 177/2/3
f 179/2/3 162/2/3 161/2/3
f 180/2/3 162/2/3 179/2/3
f 183/8/3 182/8/3 181/8/3
f 184/8/3 182/8/3 183/8/3
f 187/8/3 186/8/3 185/8/3
f 188/8/3 186/8/3 187/8/3
f 191/6/3 190/6/3 189/6/3
f 193/6/3 191/6/3 189/6/3
f 193/6/3 192/6/3 191/6/3
f 194/6/3 192/6/3 193/6/3
f 197/6/3 196/6/3 195/6/3
f 198/6/3 196/6/3 197/6/3
f 199/6/3 196/6/3 198/6/3
f 202/6/3 201/6/3 200/6/3
f 204/6/3 202/6/3 200/6/3
f 204/6/3 203/6/3 202/6/3
f 205/6/3 203/6/3 204/6/3
f 208/6/3 207/6/3 206/6/3
f 209/6/3 207/6/3 208/6/3
f 212/6/3 211/6/3 210/6/3
f 213/6/3 211/6/3 212/6/3
f 214/8/4 215/8/4 216/8/4
f 216/8/4 215/8/4 217/8/4
f 218/8/4 219/8/4 220/8/4
f 220/8/4 219/8/4 221/8/4
f 222/6/4 223/6/4 224/6/4
f 224/6/4 223/6/4 225/6/4
f 225/6/4 223/6/4 226/6/4
f 227/6/4 228/6/4 229/6/4
f 227/6/4 229/6/4 231/6/4
f 229/6/4 230/6/4 231/6/4
f 231/6/4 230/6/4 232/6/4
f 233/6/4 234/6/4 235/6/4
f 233/6/4 235/6/4 237/6/4
f 235/6/4 236/6/4 237/6/4
f 237/6/4 236/6/4 238/6/4
f 239/1/4 240/1/4 241/1/4
f 241/1/4 240/1/4 242/1/4
f 239/1/4 241/1/4 243/1/4
f 242/1/4 240/1/4 244/1/4
f 239/1/4 243/1/4 245/1/4
f 243/1/4 244/1/4 245/1/4
f 244/1/4 240/1/4 246/1/4
f 245/1/4 244/1/4 246/1/4
f 247/6/4 248/6/4 249/6/4
f 249/6/4 248/6/4 250/6/4
f 251/6/4 252/6/4 253/6/4
f 253/6/4 252/6/4 254/6/4
f 255/6/4 256/6/4 257/6/4
f 257/6/4 256/6/4 258/6/4
f 261/6/5 260/6/5 259/6/5
f 262/6/5 260/6/5 261/6/5
f 265/2/5 264/2/5 263/2/5
f 266/2/5 264/2/5 265/2/5
f 267/2/5 264/2/5 266/2/5
f 268/2/5 264/2/5 267/2/5
f 269/1/5 266/1/5 265/1/5
f 270/1/5 268/1/5 267/1/5
f 271/1/5 269/1/5 265/1/5
f 271/1/5 270/1/5 269/1/5
f 272/1/5 268/1/5 270/1/5
f 272/1/5 270/1/5 271/1/5
f 275/3/5 274/3/5 273/3/5
f 276/3/5 274/3/5 275/3/5
f 281/8/5 278/8/5 277/8/5
f 282/8/5 278/8/5 281/8/5
f 283/8/5 280/8/5 279/8/5
f 284/8/5 280/8/5 283/8/5
f 287/6/5 286/6/5 285/6/5
f 288/6/5 286/6/5 287/6/5
f 291/4/5 290/4/5 289/4/5
f 292/4/5 290/4/5 291/4/5
f 293/4/5 290/4/5 292/4/5
f 294/4/5 290/4/5 293/4/5
f 295/4/5 293/4/5 292/4/5
f 296/4/5 293/4/5 295/4/5
f 299/6/5 298/6/5 297/6/5
f 300/6/5 298/6/5 299/6/5
f 305/3/5 302/3/5 301/3/5
f 306/3/5 302/3/5 305/3/5
f 307/3/5 304/3/5 303/3/5
f 308/3/5 304/3/5 307/3/5
f 313/6/5 310/6/5 309/6/5
f 314/6/5 310/6/5 313/6/5
f 315/6/5 312/6/5 311/6/5
f 316/6/5 312/6/5 315/6/5
f 319/6/5 318/6/5 317/6/5
f 320/6/5 318/6/5 319/6/5
f 321/6/6 322/6/6 323/6/6
f 323/6/6 322/6/6 324/6/6
f 325/3/6 326/3/6 331/3/6
f 331/3/6 326/3/6 332/3/6
f 327/3/6 328/3/6 333/3/6
f 333/3/6 328/3/6 334/3/6
f 329/3/6 330/3/6 335/3/6
f 335/3/6 330/3/6 336/3/6
f 337/4/6 338/4/6 339/4/6
f 339/4/6 338/4/6 340/4/6
f 341/8/6 342/8/6 345/8/6
f 345/8/6 342/8/6 346/8/6
f 343/8/6 344/8/6 347/8/6
f 347/8/6 344/8/6 348/8/6
f 349/3/6 350/3/6 351/3/6
f 351/3/6 350/3/6 352/3/6
f 353/6/6 354/6/6 355/6/6
f 355/6/6 354/6/6 356/6/6
f 357/6/6 358/6/6 359/6/6
f 359/6/6 358/6/6 360/6/6
f 361/2/6 362/2/6 363/2/6
f 363/2/6 362/2/6 364/2/6
f 363/1/6 364/1/6 365/1/6
f 365/1/6 364/1/6 366/1/6
f 366/1/6 364/1/6 367/1/6
f 367/1/6 364/1/6 368/1/6
f 369/6/6 370/6/6 371/6/6
f 371/6/6 370/6/6 372/6/6
f 373/6/6 374/6/6 375/6/6
f 375/6/6 374/6/6 376/6/6
f 377/6/6 378/6/6 379/6/6
f 379/6/6 378/6/6 380/6/6
f 381/6/6 382/6/6 383/6/6
f 383/6/6 382/6/6 384/6/6
